# xmcd
#
# Track frame offsets: 
#        150
#        13427
#        25305
#        35197
#        47925
#        57935
#        70440
#        81952
#        93107
#        107297
#        117750
#        133450
#        145652
#        156784
#        168885
#        184980
#
# Disc length: 2593 seconds
#
# Revision: 1
# Processed by: cddbd v1.4PL0 Copyright (c) Steve Scherf et al.
# Submitted via: ExactAudioCopy v0.95a2
#
DISCID=e20a1f10
DTITLE=Lost and Found - Across The Blue Ridge Mountains
DYEAR=1995
DGENRE=Bluegrass
TTITLE0=The Man Who Wrote Home Sweet Home
TTITLE1=Nobody Loves Me
TTITLE2=Rodeo Cowboy
TTITLE3=My Home's Across The Blue Ridge Mountains
TTITLE4=Rabbit Song
TTITLE5=Leavin' You And Mobile, Too
TTITLE6=Drifting With The Tide
TTITLE7=Sun's Gonna Shine In My Back Door Someday
TTITLE8=Colder And Colder
TTITLE9=Your Love Is Dying
TTITLE10=Rain
TTITLE11=Dream Softly My Love
TTITLE12=Southern Train
TTITLE13=Southbound
TTITLE14=Why Do You Weep Dear Willow
TTITLE15=Don't Let Your Deal Go Down
EXTD=
EXTT0=
EXTT1=
EXTT2=
EXTT3=
EXTT4=
EXTT5=
EXTT6=
EXTT7=
EXTT8=
EXTT9=
EXTT10=
EXTT11=
EXTT12=
EXTT13=
EXTT14=
EXTT15=
PLAYORDER=
